<svg width="370" height="381" viewBox="0 0 370 381" fill="none" xmlns="http://www.w3.org/2000/svg">
<path d="M338.215 99.2314V281.768L185 372.856L31.7852 281.768V99.2314L185 8.14258L338.215 99.2314Z" stroke="#F3F3F3" stroke-width="14"/>
<path d="M339.702 160.296L189.188 60.7979L78.0397 133.391V235.428L204.934 319.189" stroke="#F3F3F3" stroke-width="14"/>
<path d="M290.124 131.729L286.879 125.526L116.908 233.833L120.152 240.036L123.397 246.238L293.369 137.931L290.124 131.729ZM104.47 235.851L110.373 232.09L97.4983 207.478L91.595 211.239L85.6916 215.001L98.5665 239.613L104.47 235.851ZM96.1527 194.158L99.3974 200.36L251.471 103.458L248.226 97.2556L244.982 91.053L92.908 187.955L96.1527 194.158ZM91.595 211.239L97.4983 207.478C96.2183 205.031 97.0686 201.844 99.3974 200.36L96.1527 194.158L92.908 187.955C84.0585 193.594 80.8276 205.703 85.6916 215.001L91.595 211.239ZM120.152 240.036L116.908 233.833C114.579 235.317 111.653 234.537 110.373 232.09L104.47 235.851L98.5665 239.613C103.43 248.911 114.547 251.877 123.397 246.238L120.152 240.036Z" fill="#F5F5F5"/>
<path d="M295.174 128.182L291.979 121.954L107.897 236.963L111.092 243.191L114.286 249.42L298.368 134.411L295.174 128.182Z" fill="#F5F5F5"/>
<path d="M339.702 177.327L242.056 234.511C237.46 237.203 234.636 242.129 234.636 247.455V299.542C234.636 305.369 231.261 310.668 225.982 313.133L141.39 352.628" stroke="#F3F3F3" stroke-width="14"/>
<ellipse cx="159.725" cy="240" rx="4.725" ry="6" fill="#D9D9D9"/>
<ellipse cx="204.275" cy="240" rx="4.725" ry="6" fill="#D9D9D9"/>
<ellipse cx="182" cy="240" rx="4.725" ry="6" fill="#D9D9D9"/>
</svg>
