<svg width="403" height="376" viewBox="0 0 403 376" fill="none" xmlns="http://www.w3.org/2000/svg">
<path d="M371.004 96.9854V279.014L201.5 370.32L31.9961 279.014V96.9854L201.5 5.67871L371.004 96.9854Z" stroke="#F3F3F3" stroke-width="10"/>
<path d="M370 158.193L206.062 60L85 131.64V232.338L223.212 315" stroke="#F3F3F3" stroke-width="10"/>
<path d="M316 130L130.238 237.25C124.499 240.563 117.16 238.597 113.846 232.857L99.7057 208.366C96.392 202.626 98.3585 195.287 104.098 191.974L270.365 95.9793" stroke="#F5F5F5" stroke-width="10"/>
<path d="M321.5 126.5L121 240" stroke="#F5F5F5" stroke-width="10"/>
<path d="M370 175L263.532 231.493C258.629 234.095 255.563 239.192 255.563 244.743V295.095C255.563 301.121 251.957 306.562 246.407 308.91L154 348" stroke="#F3F3F3" stroke-width="10"/>
<ellipse cx="4.28969" cy="4.32745" rx="4.28969" ry="4.32745" transform="matrix(0.999538 0.0303801 -0.0167865 0.999859 181.145 231)" fill="#D9D9D9"/>
<ellipse cx="4.55779" cy="4.32745" rx="4.55779" ry="4.32745" transform="matrix(0.999538 0.0303801 -0.0167865 0.999859 202.145 231)" fill="#D9D9D9"/>
<ellipse cx="4.28969" cy="4.32745" rx="4.28969" ry="4.32745" transform="matrix(0.999538 0.0303801 -0.0167865 0.999859 224.145 231)" fill="#D9D9D9"/>
</svg>
